HIERARCHY
ROOT root
{
	OFFSET	0	13.1	24.9
	CHANNELS 6  Xposition Yposition Zposition Xrotation Yrotation Zrotation
	JOINT spine_1
	{
		OFFSET	0	9.99999	0
		CHANNELS 3  Xrotation Yrotation Zrotation
		JOINT spine_2
		{
			OFFSET	0	112	-10
			CHANNELS 3  Xrotation Yrotation Zrotation
			JOINT spine_3
			{
				OFFSET	0	206.5	19.3
				CHANNELS 3  Xrotation Yrotation Zrotation
				JOINT spine_4
				{
					OFFSET	0	110.4	14.6
					CHANNELS 3  Xrotation Yrotation Zrotation
					JOINT neck_1
					{
						OFFSET	0	71.8	-50.3
						CHANNELS 3  Xrotation Yrotation Zrotation
						JOINT neck_2
						{
							OFFSET	0	86.2	-25.8
							CHANNELS 3  Xrotation Yrotation Zrotation
							JOINT head_ee
							{
								OFFSET	0	179.8	-8.7
								CHANNELS 3  Xrotation Yrotation Zrotation
								End Site
								{
									OFFSET	1	0	0
								}
							}
						}
					}
					JOINT left_clavicle
					{
						OFFSET	-43.2	22.4	-70.8
						CHANNELS 3  Xrotation Yrotation Zrotation
						JOINT left_shoulder
						{
							OFFSET	-93.9	-5.79999	48.7
							CHANNELS 3  Xrotation Yrotation Zrotation
							JOINT left_elbow
							{
								OFFSET	-291.4	-30.8	15.2
								CHANNELS 3  Xrotation Yrotation Zrotation
								JOINT left_lowarm_twist
								{
									OFFSET	-110.7	-3.89999	13.6
									CHANNELS 3  Xrotation Yrotation Zrotation
									JOINT left_hand
									{
										OFFSET	-110.7	-3.89999	13.6
										CHANNELS 3  Xrotation Yrotation Zrotation
										JOINT left_ee
										{
											OFFSET	-80.8	-5.10001	12.1
											CHANNELS 3  Xrotation Yrotation Zrotation
											End Site
											{
												OFFSET	1	0	0
											}
										}
									}
								}
							}
						}
					}
					JOINT right_clavicle
					{
						OFFSET	43.2	22.4	-70.8
						CHANNELS 3  Xrotation Yrotation Zrotation
						JOINT right_shoulder
						{
							OFFSET	93.9	-5.79999	48.7
							CHANNELS 3  Xrotation Yrotation Zrotation
							JOINT right_elbow
							{
								OFFSET	291.4	-30.8	15.2
								CHANNELS 3  Xrotation Yrotation Zrotation
								JOINT right_lowarm_twist
								{
									OFFSET	110.7	-3.89999	13.6
									CHANNELS 3  Xrotation Yrotation Zrotation
									JOINT right_hand
									{
										OFFSET	110.7	-3.89999	13.6
										CHANNELS 3  Xrotation Yrotation Zrotation
										JOINT right_ee
										{
											OFFSET	80.8	-5.10001	12.1
											CHANNELS 3  Xrotation Yrotation Zrotation
											End Site
											{
												OFFSET	1	0	0
											}
										}
									}
								}
							}
						}
					}
				}
			}
		}
	}
	JOINT left_hip
	{
		OFFSET	-82.8	-127.5	0.300001
		CHANNELS 3  Xrotation Yrotation Zrotation
		JOINT left_knee
		{
			OFFSET	-28.2	-396.7	2.2
			CHANNELS 3  Xrotation Yrotation Zrotation
			JOINT left_ankle
			{
				OFFSET	-11.7	-411.3	35.4
				CHANNELS 3  Xrotation Yrotation Zrotation
				JOINT left_toes
				{
					OFFSET	0	-60	-88.6
					CHANNELS 3  Xrotation Yrotation Zrotation
					JOINT left_foot_ee
					{
						OFFSET	-22.5	-16.5	-42.2
						CHANNELS 3  Xrotation Yrotation Zrotation
						End Site
						{
							OFFSET	1	0	0
						}
					}
				}
			}
		}
	}
	JOINT right_hip
	{
		OFFSET	82.8	-127.5	0.300001
		CHANNELS 3  Xrotation Yrotation Zrotation
		JOINT right_knee
		{
			OFFSET	28.2	-396.7	2.2
			CHANNELS 3  Xrotation Yrotation Zrotation
			JOINT right_ankle
			{
				OFFSET	11.7	-411.3	35.4
				CHANNELS 3  Xrotation Yrotation Zrotation
				JOINT right_toes
				{
					OFFSET	0	-60	-88.6
					CHANNELS 3  Xrotation Yrotation Zrotation
					JOINT right_foot_ee
					{
						OFFSET	22.5	-16.5	-42.2
						CHANNELS 3  Xrotation Yrotation Zrotation
						End Site
						{
							OFFSET	1	0	0
						}
					}
				}
			}
		}
	}
}
MOTION
Frames: 15
Frame Time: 0.02
3202.78 710.543 -813.685 -25.6494 53.8014 23.5548 3.97739 -0.133149 -0.371706 3.97746 -0.109227 -0.379425 3.97814 -0.0543055 -0.391081 3.97795 -0.115387 -0.377597 -6.54112 16.6665 -2.74892 -6.43875 32.9175 0.552979 -0.0 0.0 -0.0 6.21959 7.16457 12.0457 -10.2637 -21.1892 48.8684 2.24447 -48.025 0.999992 15.6748 0.283568 -1.97601 -2.16613 -3.3841 -16.2167 -0.0 0.0 -0.0 8.24436 11.2099 -15.997 -31.6023 10.8096 -61.7479 0.219399 6.20293 -0.0118879 37.1803 0.210784 4.66257 0.119579 -8.98676 -4.50312 0.0 0.0 0.0 -0.397865 8.03416 6.13737 -12.7152 0.311297 1.9225 31.2733 22.3711 -4.19158 7.12622 -0.0 -0.0 -0.0 0.0 -0.0 42.9096 3.12576 -7.15969 5.63395 0.272655 0.820987 -22.8625 10.9947 -3.65165 3.37001 -0.0 -0.0 0.0 0.0 0.0 
3184.24 709.082 -821.238 -26.1305 54.025 23.4372 3.97292 -0.103762 -0.155271 3.97293 -0.0936717 -0.161559 3.97319 -0.0697939 -0.173218 3.97316 -0.0962745 -0.160022 -6.48311 16.5902 -3.04714 -6.36421 32.9823 0.216816 -0.0 0.0 -0.0 6.22959 5.85322 12.0792 -10.8188 -20.8141 49.2157 2.1539 -46.8501 0.933284 16.4535 0.283463 -2.07546 -2.05092 -2.97479 -15.2217 -0.0 0.0 -0.0 8.47362 11.4341 -16.4836 -31.3515 10.9135 -61.574 0.244825 6.91519 -0.0147923 37.1467 0.209232 4.65856 0.0726352 -9.86837 -4.55613 0.0 0.0 0.0 -0.568202 7.91975 6.33726 -13.1258 0.314192 1.98543 30.8422 22.1604 -4.13907 7.25324 -0.0 -0.0 -0.0 0.0 -0.0 42.9168 2.89709 -6.74712 5.30681 0.254621 0.774065 -22.6256 12.4124 -3.64722 3.46866 -0.0 -0.0 0.0 0.0 0.0 
3162.19 709.457 -832.939 -27.8763 53.8928 25.3433 4.02522 -0.122126 -0.199949 4.02523 -0.109156 -0.207314 4.02562 -0.0788291 -0.220636 4.02557 -0.112685 -0.205417 -6.29066 16.2309 -3.23559 -6.14331 32.4297 -0.108772 -0.0 0.0 -0.0 6.06475 5.01813 11.7763 -12.0981 -20.4764 49.6577 2.01946 -45.0057 0.836677 17.0017 0.282577 -2.14548 -1.83582 -2.11024 -13.3316 -0.0 0.0 -0.0 8.68865 11.5713 -16.9439 -30.8722 10.5237 -61.7033 0.280001 7.89696 -0.0193266 37.1512 0.209439 4.6591 0.0293389 -10.8297 -4.66574 0.0 0.0 0.0 -1.01604 8.00273 5.97785 -12.8607 0.312374 1.9448 29.8543 20.9276 -4.00407 7.38147 -0.0 -0.0 -0.0 0.0 -0.0 43.0189 3.06468 -6.78873 3.36486 0.153119 0.493519 -22.633 13.434 -3.67424 3.49535 -0.0 -0.0 0.0 0.0 0.0 
3140.64 716.769 -845.215 -29.2885 54.352 26.4224 3.97286 -0.0700457 -0.337535 3.97292 -0.0484257 -0.341308 3.97317 0.000505844 -0.344725 3.97301 -0.0539431 -0.340479 -5.66829 15.9124 -3.81501 -5.42295 32.196 -0.957722 -0.0 0.0 -0.0 6.05189 5.04292 11.7521 -13.8773 -20.054 50.7367 1.92406 -43.6205 0.770027 17.3147 0.281771 -2.18545 -1.66882 -1.37721 -11.8477 -0.0 0.0 -0.0 8.91649 12.0079 -17.4239 -30.304 10.3527 -61.5532 0.309878 8.72722 -0.0236459 37.1768 0.210621 4.66215 0.0177408 -11.3681 -4.80815 0.0 0.0 0.0 -1.04974 7.83269 5.73351 -12.8302 0.312154 1.94014 28.7011 20.1816 -3.86011 7.32527 -0.0 -0.0 -0.0 0.0 -0.0 42.7443 3.00452 -6.39274 1.93594 0.0845486 0.285022 -23.1157 13.5906 -3.75661 3.23495 -0.0 -0.0 0.0 0.0 0.0 
3118.07 722.671 -857.794 -27.2689 54.454 24.3923 3.89944 0.000314125 -0.210328 3.89946 0.0136972 -0.209882 3.8994 0.0436121 -0.205757 3.89934 0.0105694 -0.210063 -4.43477 15.5141 -3.99847 -4.03994 31.4737 -1.59499 -0.0 0.0 -0.0 5.85586 5.71253 11.385 -15.3293 -19.4893 51.7561 1.79543 -41.6461 0.682893 17.4773 0.281266 -2.20621 -1.5397 -0.361885 -10.5036 -0.0 0.0 -0.0 9.0647 12.211 -17.7398 -29.8279 10.3674 -61.7687 0.311501 8.77223 -0.0238928 37.1242 0.208198 4.65588 -0.033993 -11.9175 -4.69979 0.0 0.0 0.0 -0.0844127 7.74546 5.1582 -13.8539 0.318217 2.09708 30.5608 19.3281 -4.05505 7.64881 -0.0 -0.0 -0.0 0.0 -0.0 41.4995 3.5328 -6.15087 -1.41018 -0.0554906 -0.209293 -22.5537 14.0076 -3.67651 3.42399 -0.0 -0.0 0.0 0.0 0.0 
3095.09 727.512 -867.291 -28.0184 54.7516 25.2181 3.89913 0.0874604 -0.207589 3.89915 0.100493 -0.201603 3.89879 0.12833 -0.185133 3.89875 0.0974811 -0.203076 -5.30872 15.5298 -3.94832 -5.02178 31.5516 -1.27533 -0.0 0.0 -0.0 5.80613 5.43746 11.2925 -17.2158 -19.085 53.241 1.70516 -40.1839 0.623767 17.5445 0.281041 -2.21479 -1.47009 -0.355879 -10.0278 -0.0 0.0 -0.0 9.3009 12.4621 -18.2473 -28.9097 10.6132 -61.5017 0.37021 10.3923 -0.0336667 37.1654 0.210094 4.66079 -0.0179637 -12.1267 -4.88561 0.0 0.0 0.0 0.249797 7.65059 4.84978 -14.0863 0.319203 2.13273 28.3483 19.2378 -3.8048 7.38124 -0.0 -0.0 -0.0 0.0 -0.0 40.6946 3.61412 -6.05536 -2.23132 -0.0854202 -0.331757 -22.2919 14.6739 -3.65188 3.42538 -0.0 -0.0 0.0 0.0 0.0 
3060.14 729.943 -886.721 -26.7786 54.7442 23.5517 3.68759 0.155797 -0.126328 3.68759 0.163519 -0.116158 3.68726 0.178806 -0.0908827 3.68728 0.162209 -0.117981 -6.04545 15.2915 -3.62643 -5.86576 30.9448 -0.76701 -0.0 0.0 -0.0 5.52936 6.90682 10.7834 -19.1445 -18.5681 53.9821 1.55679 -37.6363 0.530554 17.8755 0.279782 -2.25705 -1.09412 -0.908691 -7.72962 -0.0 0.0 -0.0 9.51999 12.9607 -18.7109 -28.2855 11.4945 -61.3324 0.464289 12.9527 -0.0527052 37.1637 0.210018 4.66059 -0.0751814 -13.2311 -4.96675 0.0 0.0 0.0 0.757192 7.71988 3.90949 -20.0579 0.294947 3.04821 31.5796 18.6494 -4.15536 8.17382 -0.0 -0.0 -0.0 0.0 -0.0 38.7566 3.78889 -5.69604 -5.17652 -0.178253 -0.774175 -18.543 14.6042 -3.034 3.16054 -0.0 -0.0 0.0 0.0 0.0 
3039.52 736.675 -895.753 -24.288 53.4952 20.9015 3.62887 0.169801 -0.0642658 3.62885 0.173546 -0.0533306 3.6287 0.179524 -0.0270805 3.62874 0.172994 -0.0550932 -5.84505 14.5018 -4.86667 -5.60145 30.3654 -2.24645 -0.0 0.0 -0.0 5.20211 6.96064 10.1865 -22.2675 -20.446 54.9647 1.40753 -34.8842 0.442251 19.0412 0.273403 -2.4058 -0.327928 0.53582 -1.96131 -0.0 0.0 -0.0 9.3369 12.9495 -18.3095 -25.7433 13.3857 -61.1674 0.608521 16.7752 -0.0897251 36.7054 0.189082 4.60586 -0.249545 -13.4454 -3.95676 0.0 0.0 0.0 4.72843 8.08539 3.32189 -29.5083 0.0625869 4.47825 32.5392 19.9036 -4.28055 8.19633 -0.0 -0.0 -0.0 0.0 -0.0 36.4596 3.62488 -6.18575 -6.59212 -0.214748 -0.988348 -12.9827 12.9723 -2.09055 3.74484 -0.0 -0.0 0.0 0.0 0.0 
3020.53 740.944 -901.654 -21.2245 52.4832 17.7632 3.57906 0.207586 0.0264029 3.57904 0.205485 0.0395587 3.57919 0.197316 0.0696807 3.57924 0.205844 0.0376437 -6.47592 14.5535 -4.87864 -6.30396 30.5105 -2.06079 -0.0 0.0 -0.0 4.95507 6.86333 9.73549 -24.3154 -19.1831 56.7731 1.30397 -32.8589 0.384524 19.4632 0.270349 -2.45961 -0.225374 1.42428 -0.899823 -0.0 0.0 -0.0 9.58463 13.8841 -18.8194 -24.6148 13.6263 -60.7102 0.641422 17.6273 -0.099455 36.1455 0.164107 4.53878 -0.363788 -14.9471 -3.85623 0.0 0.0 0.0 7.37016 8.57928 2.95573 -36.9072 -0.281817 5.56042 34.6859 18.5691 -4.48117 8.96748 -0.0 -0.0 -0.0 0.0 -0.0 34.3909 3.54014 -5.88393 -8.82319 -0.261488 -1.32751 -11.0671 12.7543 -1.77533 3.65431 -0.0 -0.0 0.0 0.0 0.0 
2981.9 747.961 -918.518 -19.3444 51.9612 15.9138 3.55391 0.134131 0.274674 3.55394 0.116381 0.282653 3.5545 0.0729201 0.296849 3.5544 0.118887 0.281608 -6.25082 14.3325 -5.23769 -6.03876 30.3454 -2.53863 -0.0 0.0 -0.0 4.44028 9.66471 8.85756 -26.7251 -19.7311 58.3781 1.15727 -29.8236 0.30819 18.27 0.277962 -2.3074 0.0784718 1.76269 1.26256 -0.0 0.0 -0.0 9.6305 14.3616 -18.9014 -22.701 13.7847 -61.1389 0.702716 19.1933 -0.118815 36.004 0.157898 4.52179 -0.364741 -14.2419 -3.56132 0.0 0.0 0.0 9.22113 9.23003 2.14455 -42.4586 -0.630547 6.33899 35.5269 18.6515 -4.56806 9.29057 -0.0 -0.0 -0.0 0.0 -0.0 31.4962 3.88178 -5.26048 -10.3384 -0.285684 -1.55874 -8.42491 12.7532 -1.34622 5.20495 -0.0 -0.0 0.0 0.0 0.0 
2957.39 749.465 -932.375 -17.1799 50.8743 13.8771 3.59662 0.0847737 0.255016 3.59666 0.0683746 0.259894 3.59695 0.0290427 0.267163 3.59686 0.0708716 0.259224 -6.678 14.3834 -5.02241 -6.52459 30.3098 -2.18144 -0.0 0.0 -0.0 4.13986 11.337 8.36711 -27.846 -20.4946 59.3026 0.995782 -26.2557 0.232242 17.902 0.27967 -2.26044 0.308681 2.30665 3.01776 -0.0 0.0 -0.0 9.73046 14.782 -19.1046 -21.388 14.272 -62.2996 0.717219 19.5596 -0.123627 35.7334 0.146139 4.48924 -0.616263 -13.3099 -1.59974 0.0 0.0 0.0 10.5812 9.80052 1.91972 -46.4488 -0.92714 6.87633 35.0827 19.0955 -4.53136 9.58484 -0.0 -0.0 -0.0 0.0 -0.0 28.8809 4.78866 -5.43247 -11.4359 -0.299387 -1.72659 -4.88832 13.0532 -0.777625 6.7244 -0.0 -0.0 0.0 0.0 0.0 
2938.27 752.108 -942.888 -16.1618 50.5398 13.2107 3.64305 0.20389 0.452131 3.64315 0.174707 0.464188 3.64453 0.104281 0.48489 3.64424 0.179551 0.462336 -7.17166 14.4516 -4.26715 -7.10332 29.9294 -1.25673 -0.0 0.0 -0.0 3.5008 12.7386 7.32123 -29.0433 -20.9676 60.2316 0.873366 -23.395 0.180829 17.5753 0.280934 -2.21873 0.432621 2.82727 4.0546 -0.0 0.0 -0.0 9.91242 15.733 -19.4649 -19.537 14.8997 -63.3381 0.768269 20.8357 -0.141253 35.6895 0.14425 4.48397 -0.760213 -12.2392 -0.237304 0.0 0.0 0.0 11.7275 9.13785 1.1565 -48.9716 -1.13379 7.2051 33.436 19.5371 -4.36904 9.65342 -0.0 -0.0 -0.0 0.0 -0.0 26.9284 5.33356 -5.4019 -12.2258 -0.307257 -1.84752 -2.45191 13.4522 -0.38903 7.8109 -0.0 -0.0 0.0 0.0 0.0 
2920.47 755.032 -954.513 -15.3135 50.7615 13.1654 3.7289 0.182782 0.214281 3.72891 0.168776 0.225478 3.72957 0.134015 0.247721 3.72953 0.171456 0.223447 -8.9073 14.7578 -2.96586 -9.06649 29.7127 0.61541 -0.0 0.0 -0.0 3.23371 14.253 6.92942 -30.2067 -21.1119 60.7424 0.790232 -21.3782 0.149162 17.4284 0.281425 -2.19996 0.50797 4.15135 5.09262 -0.0 0.0 -0.0 10.1997 15.8276 -20.1004 -16.4879 15.5998 -62.8729 0.808322 21.822 -0.155822 36.1377 0.16376 4.53783 -0.943556 -12.0772 0.991191 0.0 0.0 0.0 16.6902 8.05815 -2.61403 -53.0841 -1.50125 7.7209 32.4684 19.851 -4.27198 8.80808 -0.0 -0.0 -0.0 0.0 -0.0 23.9614 4.9949 -5.78785 -11.103 -0.29557 -1.67564 0.0460147 14.7355 0.0073227 8.32531 -0.0 -0.0 0.0 0.0 0.0 
2909.73 754.153 -967.089 -14.0195 50.4297 12.7526 3.76829 0.107971 0.0547079 3.76828 0.104271 0.0614675 3.7684 0.0942209 0.0759816 3.76841 0.105038 0.0601476 -8.92062 15.1154 -2.82936 -9.0936 30.2921 0.84585 -0.0 0.0 -0.0 3.07785 15.1978 6.7103 -30.2101 -21.3086 61.2614 0.601991 -16.6052 0.0878495 17.6914 0.280512 -2.23354 0.501226 5.17414 5.46061 -0.0 0.0 -0.0 10.3649 16.2551 -20.4489 -14.4628 16.3903 -62.8392 0.959055 25.4114 -0.216237 36.2442 0.168462 4.55062 -1.01192 -11.6644 1.60545 0.0 0.0 0.0 19.2397 6.51754 -4.91319 -54.6882 -1.65452 7.91483 30.5098 20.3074 -4.06626 8.40936 -0.0 -0.0 -0.0 0.0 -0.0 23.3258 5.50671 -6.58109 -13.1226 -0.314171 -1.98496 0.561206 14.4799 0.0890155 9.06746 -0.0 -0.0 0.0 0.0 0.0 
2895.93 753.974 -978.022 -13.5406 50.3029 13.1221 3.86844 0.107902 -0.00618535 3.86843 0.108077 0.000693276 3.86843 0.106855 0.0162209 3.86845 0.108076 -0.000858434 -9.69208 15.5051 -1.99606 -9.97421 30.5227 1.99444 -0.0 0.0 -0.0 2.68493 16.1523 6.12268 -29.7814 -21.7271 62.81 0.480996 -13.4022 0.0565139 17.5791 0.28092 -2.21921 0.308664 7.50258 5.13323 -0.0 0.0 -0.0 10.5763 16.4333 -20.9138 -12.6889 16.8997 -62.7839 1.11713 28.959 -0.288493 36.5831 0.18357 4.59122 -0.946 -10.8936 1.5259 0.0 0.0 0.0 21.2417 4.92353 -6.46931 -56.0468 -1.78857 8.07571 29.1171 20.4106 -3.91141 7.99362 -0.0 -0.0 -0.0 0.0 -0.0 22.0747 5.92073 -7.60232 -13.4697 -0.31627 -2.03816 2.08873 16.691 0.335557 9.92689 -0.0 -0.0 0.0 0.0 0.0 
